<svg width="559" height="146" viewBox="0 0 559 146" fill="none" xmlns="http://www.w3.org/2000/svg">
<rect width="146" height="146" fill="black"/>
<rect x="91.7566" y="29" width="18.0366" height="93.3315" transform="rotate(33.6795 91.7566 29)" fill="#FFF44F"/>
<path d="M186.702 23.632H200.256C203.964 23.632 206.736 24.406 208.572 25.954C210.444 27.466 211.38 29.86 211.38 33.136C211.38 35.476 210.966 37.312 210.138 38.644C209.346 39.94 208.158 40.966 206.574 41.722C210.534 43.09 212.514 46.024 212.514 50.524C212.514 54.268 211.524 56.95 209.544 58.57C207.564 60.19 204.702 61 200.958 61H186.702V23.632ZM200.526 43.828H190.86V57.328H200.796C203.244 57.328 205.098 56.824 206.358 55.816C207.654 54.772 208.302 52.954 208.302 50.362C208.302 48.994 208.032 47.842 207.492 46.906C206.988 45.97 206.304 45.304 205.44 44.908C203.856 44.188 202.218 43.828 200.526 43.828ZM200.094 27.304H190.86V40.21H200.472C202.776 40.21 204.45 39.67 205.494 38.59C206.574 37.474 207.114 35.818 207.114 33.622C207.114 31.39 206.538 29.788 205.386 28.816C204.27 27.808 202.506 27.304 200.094 27.304Z" fill="black"/>
<path d="M244.223 34H248.273V61H244.223V59.11C241.523 60.73 238.859 61.54 236.231 61.54C232.559 61.54 230.111 60.586 228.887 58.678C227.699 56.77 227.105 53.242 227.105 48.094V34H231.155V48.04C231.155 51.964 231.497 54.592 232.181 55.924C232.865 57.256 234.413 57.922 236.825 57.922C238.013 57.922 239.219 57.76 240.443 57.436C241.667 57.076 242.603 56.734 243.251 56.41L244.223 55.924V34Z" fill="black"/>
<path d="M274.585 73.69C270.265 73.69 267.241 73.096 265.513 71.908C263.821 70.756 262.975 68.632 262.975 65.536C262.975 64.06 263.299 62.854 263.947 61.918C264.595 61.018 265.693 59.992 267.241 58.84C266.233 58.156 265.729 56.914 265.729 55.114C265.729 54.502 266.179 53.368 267.079 51.712L267.565 50.848C264.721 49.552 263.299 46.834 263.299 42.694C263.299 36.538 266.665 33.46 273.397 33.46C275.125 33.46 276.727 33.64 278.203 34L279.013 34.162L287.005 33.946V37.402L281.875 37.294C283.063 38.482 283.657 40.282 283.657 42.694C283.657 46.078 282.811 48.454 281.119 49.822C279.463 51.154 276.835 51.82 273.235 51.82C272.263 51.82 271.381 51.748 270.589 51.604C269.941 53.188 269.617 54.214 269.617 54.682C269.617 55.798 269.959 56.5 270.643 56.788C271.327 57.04 273.397 57.166 276.853 57.166C280.309 57.166 282.793 57.706 284.305 58.786C285.817 59.866 286.573 61.972 286.573 65.104C286.573 70.828 282.577 73.69 274.585 73.69ZM266.971 65.212C266.971 67.12 267.493 68.434 268.537 69.154C269.617 69.91 271.579 70.288 274.423 70.288C277.303 70.288 279.355 69.892 280.579 69.1C281.839 68.308 282.469 66.976 282.469 65.104C282.469 63.268 282.019 62.08 281.119 61.54C280.219 61 278.455 60.73 275.827 60.73L269.995 60.46C268.807 61.324 267.997 62.08 267.565 62.728C267.169 63.376 266.971 64.204 266.971 65.212ZM267.349 42.694C267.349 44.818 267.817 46.33 268.753 47.23C269.725 48.13 271.309 48.58 273.505 48.58C275.701 48.58 277.267 48.13 278.203 47.23C279.139 46.33 279.607 44.818 279.607 42.694C279.607 40.534 279.139 39.004 278.203 38.104C277.267 37.204 275.701 36.754 273.505 36.754C271.309 36.754 269.725 37.222 268.753 38.158C267.817 39.058 267.349 40.57 267.349 42.694Z" fill="black"/>
<path d="M318.361 57.652L319.927 57.49L320.035 60.676C315.931 61.252 312.421 61.54 309.505 61.54C305.617 61.54 302.863 60.424 301.243 58.192C299.623 55.924 298.813 52.414 298.813 47.662C298.813 38.194 302.575 33.46 310.099 33.46C313.735 33.46 316.453 34.486 318.253 36.538C320.053 38.554 320.953 41.74 320.953 46.096L320.737 49.174H302.917C302.917 52.162 303.457 54.376 304.537 55.816C305.617 57.256 307.489 57.976 310.153 57.976C312.853 57.976 315.589 57.868 318.361 57.652ZM316.903 45.934C316.903 42.622 316.363 40.282 315.283 38.914C314.239 37.546 312.511 36.862 310.099 36.862C307.723 36.862 305.923 37.582 304.699 39.022C303.511 40.462 302.899 42.766 302.863 45.934H316.903Z" fill="black"/>
<path d="M349.193 37.51H340.607V50.416C340.607 53.512 340.823 55.546 341.255 56.518C341.723 57.49 342.803 57.976 344.495 57.976L349.301 57.652L349.571 61C347.159 61.396 345.323 61.594 344.063 61.594C341.255 61.594 339.311 60.91 338.231 59.542C337.151 58.174 336.611 55.564 336.611 51.712V37.51H332.777V34H336.611V25.738H340.607V34H349.193V37.51Z" fill="black"/>
<path d="M381.3 42.154V55.978C381.408 57.31 382.452 58.102 384.432 58.354L384.27 61.54C381.426 61.54 379.284 60.82 377.844 59.38C374.604 60.82 371.364 61.54 368.124 61.54C365.64 61.54 363.75 60.838 362.454 59.434C361.158 58.03 360.51 56.014 360.51 53.386C360.51 50.758 361.176 48.832 362.508 47.608C363.84 46.348 365.928 45.574 368.772 45.286L377.25 44.476V42.154C377.25 40.318 376.854 39.004 376.062 38.212C375.27 37.42 374.19 37.024 372.822 37.024C369.942 37.024 366.954 37.204 363.858 37.564L362.184 37.726L362.022 34.648C365.982 33.856 369.492 33.46 372.552 33.46C375.612 33.46 377.826 34.162 379.194 35.566C380.598 36.97 381.3 39.166 381.3 42.154ZM364.668 53.17C364.668 56.482 366.036 58.138 368.772 58.138C371.22 58.138 373.632 57.724 376.008 56.896L377.25 56.464V47.554L369.258 48.31C367.638 48.454 366.468 48.922 365.748 49.714C365.028 50.506 364.668 51.658 364.668 53.17Z" fill="black"/>
<path d="M397.391 61V34H401.387V37.672C404.519 35.512 407.813 34.09 411.269 33.406V37.51C409.757 37.798 408.173 38.248 406.517 38.86C404.897 39.472 403.655 40.012 402.791 40.48L401.441 41.182V61H397.391Z" fill="black"/>
<path d="M441.992 57.652L443.558 57.49L443.666 60.676C439.562 61.252 436.052 61.54 433.136 61.54C429.248 61.54 426.494 60.424 424.874 58.192C423.254 55.924 422.444 52.414 422.444 47.662C422.444 38.194 426.206 33.46 433.73 33.46C437.366 33.46 440.084 34.486 441.884 36.538C443.684 38.554 444.584 41.74 444.584 46.096L444.368 49.174H426.548C426.548 52.162 427.088 54.376 428.168 55.816C429.248 57.256 431.12 57.976 433.784 57.976C436.484 57.976 439.22 57.868 441.992 57.652ZM440.534 45.934C440.534 42.622 439.994 40.282 438.914 38.914C437.87 37.546 436.142 36.862 433.73 36.862C431.354 36.862 429.554 37.582 428.33 39.022C427.142 40.462 426.53 42.766 426.494 45.934H440.534Z" fill="black"/>
<path d="M186 136.988V98H189.996V99.944C192.732 98.288 195.432 97.46 198.096 97.46C201.516 97.46 204 98.558 205.548 100.754C207.096 102.914 207.87 106.496 207.87 111.5C207.87 116.504 206.952 120.104 205.116 122.3C203.316 124.46 200.31 125.54 196.098 125.54C193.902 125.54 191.886 125.342 190.05 124.946V136.988H186ZM197.502 101.078C196.422 101.078 195.252 101.258 193.992 101.618C192.768 101.978 191.796 102.338 191.076 102.698L190.05 103.238V121.436C192.606 121.832 194.55 122.03 195.882 122.03C198.798 122.03 200.832 121.202 201.984 119.546C203.172 117.89 203.766 115.19 203.766 111.446C203.766 107.702 203.226 105.038 202.146 103.454C201.102 101.87 199.554 101.078 197.502 101.078Z" fill="black"/>
<path d="M241.639 106.154V119.978C241.747 121.31 242.791 122.102 244.771 122.354L244.609 125.54C241.765 125.54 239.623 124.82 238.183 123.38C234.943 124.82 231.703 125.54 228.463 125.54C225.979 125.54 224.089 124.838 222.793 123.434C221.497 122.03 220.849 120.014 220.849 117.386C220.849 114.758 221.515 112.832 222.847 111.608C224.179 110.348 226.267 109.574 229.111 109.286L237.589 108.476V106.154C237.589 104.318 237.193 103.004 236.401 102.212C235.609 101.42 234.529 101.024 233.161 101.024C230.281 101.024 227.293 101.204 224.197 101.564L222.523 101.726L222.361 98.648C226.321 97.856 229.831 97.46 232.891 97.46C235.951 97.46 238.165 98.162 239.533 99.566C240.937 100.97 241.639 103.166 241.639 106.154ZM225.007 117.17C225.007 120.482 226.375 122.138 229.111 122.138C231.559 122.138 233.971 121.724 236.347 120.896L237.589 120.464V111.554L229.597 112.31C227.977 112.454 226.807 112.922 226.087 113.714C225.367 114.506 225.007 115.658 225.007 117.17Z" fill="black"/>
<path d="M257.729 125V98H261.725V101.672C264.857 99.512 268.151 98.09 271.607 97.406V101.51C270.095 101.798 268.511 102.248 266.855 102.86C265.235 103.472 263.993 104.012 263.129 104.48L261.779 105.182V125H257.729Z" fill="black"/>
<path d="M298.483 101.51H289.897V114.416C289.897 117.512 290.113 119.546 290.545 120.518C291.013 121.49 292.093 121.976 293.785 121.976L298.591 121.652L298.861 125C296.449 125.396 294.613 125.594 293.353 125.594C290.545 125.594 288.601 124.91 287.521 123.542C286.441 122.174 285.901 119.564 285.901 115.712V101.51H282.067V98H285.901V89.738H289.897V98H298.483V101.51Z" fill="black"/>
<path d="M311.529 125V98H315.579V125H311.529ZM311.529 91.898V87.2H315.579V91.898H311.529Z" fill="black"/>
<path d="M341.539 97.46C342.727 97.46 344.743 97.676 347.587 98.108L348.883 98.27L348.721 101.564C345.841 101.24 343.717 101.078 342.349 101.078C339.289 101.078 337.201 101.816 336.085 103.292C335.005 104.732 334.465 107.432 334.465 111.392C334.465 115.316 334.969 118.052 335.977 119.6C337.021 121.148 339.163 121.922 342.403 121.922L348.775 121.436L348.937 124.784C345.589 125.288 343.087 125.54 341.431 125.54C337.219 125.54 334.303 124.46 332.683 122.3C331.099 120.14 330.307 116.504 330.307 111.392C330.307 106.244 331.171 102.644 332.899 100.592C334.627 98.504 337.507 97.46 341.539 97.46Z" fill="black"/>
<path d="M363.061 125V98H367.111V125H363.061ZM363.061 91.898V87.2H367.111V91.898H363.061Z" fill="black"/>
<path d="M382.973 136.988V98H386.969V99.944C389.705 98.288 392.405 97.46 395.069 97.46C398.489 97.46 400.973 98.558 402.521 100.754C404.069 102.914 404.843 106.496 404.843 111.5C404.843 116.504 403.925 120.104 402.089 122.3C400.289 124.46 397.283 125.54 393.071 125.54C390.875 125.54 388.859 125.342 387.023 124.946V136.988H382.973ZM394.475 101.078C393.395 101.078 392.225 101.258 390.965 101.618C389.741 101.978 388.769 102.338 388.049 102.698L387.023 103.238V121.436C389.579 121.832 391.523 122.03 392.855 122.03C395.771 122.03 397.805 121.202 398.957 119.546C400.145 117.89 400.739 115.19 400.739 111.446C400.739 107.702 400.199 105.038 399.119 103.454C398.075 101.87 396.527 101.078 394.475 101.078Z" fill="black"/>
<path d="M438.612 106.154V119.978C438.72 121.31 439.764 122.102 441.744 122.354L441.582 125.54C438.738 125.54 436.596 124.82 435.156 123.38C431.916 124.82 428.676 125.54 425.436 125.54C422.952 125.54 421.062 124.838 419.766 123.434C418.47 122.03 417.822 120.014 417.822 117.386C417.822 114.758 418.488 112.832 419.82 111.608C421.152 110.348 423.24 109.574 426.084 109.286L434.562 108.476V106.154C434.562 104.318 434.166 103.004 433.374 102.212C432.582 101.42 431.502 101.024 430.134 101.024C427.254 101.024 424.266 101.204 421.17 101.564L419.496 101.726L419.334 98.648C423.294 97.856 426.804 97.46 429.864 97.46C432.924 97.46 435.138 98.162 436.506 99.566C437.91 100.97 438.612 103.166 438.612 106.154ZM421.98 117.17C421.98 120.482 423.348 122.138 426.084 122.138C428.532 122.138 430.944 121.724 433.32 120.896L434.562 120.464V111.554L426.57 112.31C424.95 112.454 423.78 112.922 423.06 113.714C422.34 114.506 421.98 115.658 421.98 117.17Z" fill="black"/>
<path d="M468.689 101.51H460.103V114.416C460.103 117.512 460.319 119.546 460.751 120.518C461.219 121.49 462.299 121.976 463.991 121.976L468.797 121.652L469.067 125C466.655 125.396 464.819 125.594 463.559 125.594C460.751 125.594 458.807 124.91 457.727 123.542C456.647 122.174 456.107 119.564 456.107 115.712V101.51H452.273V98H456.107V89.738H460.103V98H468.689V101.51Z" fill="black"/>
<path d="M481.734 125V98H485.784V125H481.734ZM481.734 91.898V87.2H485.784V91.898H481.734Z" fill="black"/>
<path d="M499.109 98H503.429L509.747 121.49H511.745L518.279 98H522.437L514.823 125H506.723L499.109 98Z" fill="black"/>
<path d="M554.385 106.262V119.546C554.421 120.95 555.447 121.778 557.463 122.03L557.355 125.54C554.403 125.54 552.261 124.856 550.929 123.488L549.579 124.028C548.679 124.352 547.401 124.676 545.745 125C544.089 125.36 542.487 125.54 540.939 125.54C538.599 125.54 536.781 124.82 535.485 123.38C534.225 121.94 533.595 119.924 533.595 117.332C533.595 114.74 534.261 112.814 535.593 111.554C536.925 110.294 539.013 109.538 541.857 109.286C541.857 109.286 544.683 109.016 550.335 108.476V106.262C550.335 102.986 548.769 101.348 545.637 101.348C543.009 101.348 539.571 101.582 535.323 102.05L535.161 98.54L536.889 98.27C540.345 97.73 543.333 97.46 545.853 97.46C548.733 97.46 550.875 98.18 552.279 99.62C553.683 101.024 554.385 103.238 554.385 106.262ZM541.587 122.03C544.287 122.03 547.203 121.49 550.335 120.41V111.77L542.343 112.418C539.283 112.706 537.753 114.29 537.753 117.17C537.753 118.718 538.077 119.924 538.725 120.788C539.409 121.616 540.363 122.03 541.587 122.03ZM540.561 85.418C540.633 86.642 541.047 87.632 541.803 88.388C542.595 89.108 543.675 89.468 545.043 89.468C546.447 89.468 547.545 89.108 548.337 88.388C549.129 87.632 549.543 86.642 549.579 85.418H553.737C553.629 87.686 552.801 89.54 551.253 90.98C549.741 92.384 547.671 93.086 545.043 93.086C542.451 93.086 540.381 92.384 538.833 90.98C537.321 89.54 536.511 87.686 536.403 85.418H540.561Z" fill="black"/>
</svg>
